<svg width="19" height="20" viewBox="0 0 19 20" fill="none" xmlns="http://www.w3.org/2000/svg">
<path d="M1.5 16C1.5 14.9391 1.92143 13.9217 2.67157 13.1716C3.42172 12.4214 4.43913 12 5.5 12H13.5C14.5609 12 15.5783 12.4214 16.3284 13.1716C17.0786 13.9217 17.5 14.9391 17.5 16C17.5 16.5304 17.2893 17.0391 16.9142 17.4142C16.5391 17.7893 16.0304 18 15.5 18H3.5C2.96957 18 2.46086 17.7893 2.08579 17.4142C1.71071 17.0391 1.5 16.5304 1.5 16Z" stroke="#F07E01" stroke-width="2.5" stroke-linejoin="round"/>
<path d="M9.5 8C11.1569 8 12.5 6.65685 12.5 5C12.5 3.34315 11.1569 2 9.5 2C7.84315 2 6.5 3.34315 6.5 5C6.5 6.65685 7.84315 8 9.5 8Z" stroke="#F07E01" stroke-width="2.5"/>
</svg>
