<svg width="25" height="24" viewBox="0 0 25 24" fill="none" xmlns="http://www.w3.org/2000/svg">
<path d="M8.5 18H16.5V16H8.5V18ZM7.5 22C6.95 22 6.47933 21.8043 6.088 21.413C5.69667 21.0217 5.50067 20.5507 5.5 20V12C5.5 10.5833 5.871 9.31667 6.613 8.2C7.355 7.08333 8.31733 6.25 9.5 5.7V5C9.5 4.16667 9.79167 3.45833 10.375 2.875C10.9583 2.29167 11.6667 2 12.5 2C13.3333 2 14.0417 2.29167 14.625 2.875C15.2083 3.45833 15.5 4.16667 15.5 5V5.7C16.6833 6.25 17.646 7.08333 18.388 8.2C19.13 9.31667 19.5007 10.5833 19.5 12V20C19.5 20.55 19.3043 21.021 18.913 21.413C18.5217 21.805 18.0507 22.0007 17.5 22H7.5ZM7.5 20H17.5V12C17.5 10.6167 17.0123 9.43767 16.037 8.463C15.0617 7.48833 13.8827 7.00067 12.5 7C11.1167 7 9.93767 7.48767 8.963 8.463C7.98833 9.43833 7.50067 10.6173 7.5 12V20ZM11.5 5.1C11.6833 5.06667 11.85 5.04167 12 5.025C12.15 5.00833 12.3167 5 12.5 5C12.6833 5 12.85 5.00833 13 5.025C13.15 5.04167 13.3167 5.06667 13.5 5.1V5C13.5 4.71667 13.404 4.47933 13.212 4.288C13.02 4.09667 12.7827 4.00067 12.5 4C12.2167 4 11.9793 4.096 11.788 4.288C11.5967 4.48 11.5007 4.71733 11.5 5V5.1ZM10.65 14.5L12.5 13.1L14.35 14.5L13.65 12.225L15.5 10.9H13.225L12.5 8.5L11.775 10.9H9.5L11.35 12.225L10.65 14.5Z" fill="#F07E01"/>
</svg>
