<svg width="9" height="14" viewBox="0 0 9 14" fill="none" xmlns="http://www.w3.org/2000/svg">
<path d="M2.34114 13.2724L8.44499 7.57499C8.51744 7.50716 8.56864 7.43368 8.59858 7.35455C8.62901 7.27542 8.64423 7.19064 8.64423 7.10021C8.64423 7.00977 8.62901 6.92499 8.59858 6.84586C8.56864 6.76673 8.51744 6.69325 8.44499 6.62543L2.34114 0.911097C2.17209 0.752836 1.96078 0.673706 1.70721 0.673706C1.45364 0.673706 1.23629 0.758488 1.05517 0.928053C0.874044 1.09762 0.783483 1.29544 0.783483 1.52153C0.783483 1.74762 0.874044 1.94544 1.05517 2.11501L6.38019 7.10021L1.05517 12.0854C0.886119 12.2437 0.801595 12.4386 0.801595 12.6701C0.801595 12.902 0.892157 13.1028 1.07328 13.2724C1.2544 13.4419 1.46571 13.5267 1.70721 13.5267C1.94871 13.5267 2.16002 13.4419 2.34114 13.2724Z" fill="white"/>
</svg>
