<svg width="17" height="18" viewBox="0 0 17 18" fill="none" xmlns="http://www.w3.org/2000/svg">
<g clip-path="url(#clip0_185_5756)">
<path d="M1.46976 3.93746H1.54023C1.64854 4.41985 1.89555 4.84759 2.24224 5.15309C2.58893 5.45859 3.01554 5.62444 3.45466 5.62444C3.89378 5.62444 4.32038 5.45859 4.66707 5.15309C5.01376 4.84759 5.26078 4.41985 5.36909 3.93746H15.364C15.4956 3.93746 15.6218 3.8782 15.7149 3.77271C15.808 3.66722 15.8602 3.52415 15.8602 3.37496C15.8602 3.22578 15.808 3.0827 15.7149 2.97721C15.6218 2.87173 15.4956 2.81246 15.364 2.81246H5.36909C5.26078 2.33007 5.01376 1.90234 4.66707 1.59684C4.32038 1.29134 3.89378 1.12549 3.45466 1.12549C3.01554 1.12549 2.58893 1.29134 2.24224 1.59684C1.89555 1.90234 1.64854 2.33007 1.54023 2.81246H1.46976C1.33816 2.81246 1.21194 2.87173 1.11888 2.97721C1.02582 3.0827 0.973541 3.22578 0.973541 3.37496C0.973541 3.52415 1.02582 3.66722 1.11888 3.77271C1.21194 3.8782 1.33816 3.93746 1.46976 3.93746ZM3.45466 2.24996C3.65095 2.24996 3.84283 2.31594 4.00603 2.43956C4.16924 2.56318 4.29644 2.73888 4.37156 2.94444C4.44668 3.15001 4.46633 3.37621 4.42804 3.59444C4.38974 3.81267 4.29522 4.01312 4.15642 4.17046C4.01763 4.32779 3.84079 4.43494 3.64828 4.47835C3.45576 4.52175 3.25621 4.49948 3.07487 4.41433C2.89352 4.32918 2.73852 4.18498 2.62947 3.99998C2.52042 3.81497 2.46221 3.59747 2.46221 3.37496C2.46221 3.07659 2.56677 2.79045 2.75289 2.57947C2.93901 2.36849 3.19145 2.24996 3.45466 2.24996ZM15.364 8.43746H15.2936C15.1852 7.95507 14.9382 7.52734 14.5915 7.22184C14.2449 6.91634 13.8183 6.75049 13.3791 6.75049C12.94 6.75049 12.5134 6.91634 12.1667 7.22184C11.82 7.52734 11.573 7.95507 11.4647 8.43746H1.46976C1.33816 8.43746 1.21194 8.49673 1.11888 8.60221C1.02582 8.7077 0.973541 8.85078 0.973541 8.99996C0.973541 9.14915 1.02582 9.29222 1.11888 9.39771C1.21194 9.5032 1.33816 9.56246 1.46976 9.56246H11.4647C11.573 10.0449 11.82 10.4726 12.1667 10.7781C12.5134 11.0836 12.94 11.2494 13.3791 11.2494C13.8183 11.2494 14.2449 11.0836 14.5915 10.7781C14.9382 10.4726 15.1852 10.0449 15.2936 9.56246H15.364C15.4956 9.56246 15.6218 9.5032 15.7149 9.39771C15.808 9.29222 15.8602 9.14915 15.8602 8.99996C15.8602 8.85078 15.808 8.7077 15.7149 8.60221C15.6218 8.49673 15.4956 8.43746 15.364 8.43746ZM13.3791 10.125C13.1828 10.125 12.991 10.059 12.8278 9.93537C12.6645 9.81175 12.5373 9.63605 12.4622 9.43048C12.3871 9.22491 12.3675 8.99871 12.4058 8.78049C12.444 8.56226 12.5386 8.3618 12.6774 8.20447C12.8162 8.04713 12.993 7.93999 13.1855 7.89658C13.378 7.85317 13.5776 7.87545 13.7589 7.9606C13.9403 8.04575 14.0953 8.18994 14.2043 8.37495C14.3134 8.55995 14.3716 8.77746 14.3716 8.99996C14.3716 9.29833 14.267 9.58448 14.0809 9.79546C13.8948 10.0064 13.6423 10.125 13.3791 10.125ZM15.364 14.0625H10.3313C10.223 13.5801 9.976 13.1523 9.62931 12.8468C9.28262 12.5413 8.85602 12.3755 8.41689 12.3755C7.97777 12.3755 7.55117 12.5413 7.20448 12.8468C6.85779 13.1523 6.61078 13.5801 6.50246 14.0625H1.46976C1.33816 14.0625 1.21194 14.1217 1.11888 14.2272C1.02582 14.3327 0.973541 14.4758 0.973541 14.625C0.973541 14.7741 1.02582 14.9172 1.11888 15.0227C1.21194 15.1282 1.33816 15.1875 1.46976 15.1875H6.50246C6.61078 15.6699 6.85779 16.0976 7.20448 16.4031C7.55117 16.7086 7.97777 16.8744 8.41689 16.8744C8.85602 16.8744 9.28262 16.7086 9.62931 16.4031C9.976 16.0976 10.223 15.6699 10.3313 15.1875H15.364C15.4956 15.1875 15.6218 15.1282 15.7149 15.0227C15.808 14.9172 15.8602 14.7741 15.8602 14.625C15.8602 14.4758 15.808 14.3327 15.7149 14.2272C15.6218 14.1217 15.4956 14.0625 15.364 14.0625ZM8.41689 15.75C8.22061 15.75 8.02873 15.684 7.86552 15.5604C7.70231 15.4367 7.57511 15.261 7.49999 15.0555C7.42488 14.8499 7.40522 14.6237 7.44352 14.4055C7.48181 14.1873 7.57633 13.9868 7.71513 13.8295C7.85392 13.6721 8.03076 13.565 8.22328 13.5216C8.41579 13.4782 8.61534 13.5004 8.79669 13.5856C8.97803 13.6707 9.13303 13.8149 9.24208 13.9999C9.35114 14.185 9.40934 14.4025 9.40934 14.625C9.40934 14.9233 9.30478 15.2095 9.11866 15.4205C8.93254 15.6314 8.68011 15.75 8.41689 15.75Z" fill="#F07E01"/>
</g>
<defs>
<clipPath id="clip0_185_5756">
<rect x="0.477325" width="15.8792" height="18" rx="7.93958" fill="white"/>
</clipPath>
</defs>
</svg>
