<svg width="16" height="17" viewBox="0 0 16 17" fill="none" xmlns="http://www.w3.org/2000/svg">
<path d="M8.1551 10.0322V7.05621H15.7959C15.9102 7.56021 16 8.03221 16 8.69621C16 13.2642 12.8735 16.5122 8.16327 16.5122C3.65714 16.5122 0 12.9282 0 8.51221C0 4.09621 3.65714 0.512207 8.16327 0.512207C10.3673 0.512207 12.2122 1.30421 13.6245 2.60021L11.3061 4.80821C10.7184 4.26421 9.6898 3.62421 8.16327 3.62421C5.46122 3.62421 3.25714 5.82421 3.25714 8.52021C3.25714 11.2162 5.46122 13.4162 8.16327 13.4162C11.2898 13.4162 12.4408 11.2962 12.6531 10.0402H8.1551V10.0322Z" fill="white"/>
</svg>
