<svg width="15" height="18" viewBox="0 0 15 18" fill="none" xmlns="http://www.w3.org/2000/svg">
<path d="M14.3335 15.6825L11.5841 12.575C12.4712 11.2939 12.9525 9.71194 12.9507 8.08334C12.9507 6.63294 12.5713 5.21512 11.8604 4.00915C11.1496 2.80319 10.1392 1.86326 8.95712 1.30822C7.77501 0.753177 6.47426 0.607953 5.21934 0.890911C3.96442 1.17387 2.8117 1.8723 1.90696 2.89789C1.00221 3.92347 0.386073 5.23015 0.136454 6.65267C-0.113164 8.0752 0.014949 9.54969 0.504594 10.8897C0.994239 12.2297 1.82342 13.375 2.88729 14.1808C3.95116 14.9866 5.20193 15.4167 6.48143 15.4167C7.91815 15.4187 9.31373 14.8731 10.4439 13.8675L13.1852 16.9842C13.2604 17.0701 13.3498 17.1383 13.4484 17.1848C13.5469 17.2314 13.6526 17.2553 13.7594 17.2553C13.8661 17.2553 13.9718 17.2314 14.0704 17.1848C14.1689 17.1383 14.2584 17.0701 14.3335 16.9842C14.4093 16.899 14.4695 16.7976 14.5105 16.6859C14.5516 16.5742 14.5727 16.4543 14.5727 16.3333C14.5727 16.2123 14.5516 16.0925 14.5105 15.9808C14.4695 15.8691 14.4093 15.7677 14.3335 15.6825ZM1.62947 8.08334C1.62947 6.99554 1.91403 5.93217 2.44717 5.0277C2.98031 4.12323 3.73809 3.41828 4.62467 3.002C5.51125 2.58572 6.48682 2.4768 7.42801 2.68902C8.36919 2.90124 9.23373 3.42506 9.91229 4.19425C10.5908 4.96344 11.053 5.94344 11.2402 7.01034C11.4274 8.07724 11.3313 9.1831 10.9641 10.1881C10.5968 11.1931 9.97494 12.0521 9.17704 12.6564C8.37914 13.2608 7.44106 13.5833 6.48143 13.5833C5.19461 13.5833 3.9605 13.0039 3.05058 11.9724C2.14066 10.941 1.62947 9.54203 1.62947 8.08334Z" fill="#F07E01"/>
</svg>
