<svg width="15" height="20" viewBox="0 0 15 20" fill="none" xmlns="http://www.w3.org/2000/svg">
<path d="M3.5 16H11.5V14H3.5V16ZM2.5 20C1.95 20 1.47933 19.8043 1.088 19.413C0.696666 19.0217 0.500667 18.5507 0.5 18V10C0.5 8.58333 0.871 7.31667 1.613 6.2C2.355 5.08333 3.31733 4.25 4.5 3.7V3C4.5 2.16667 4.79167 1.45833 5.375 0.875C5.95833 0.291667 6.66667 0 7.5 0C8.33333 0 9.04167 0.291667 9.625 0.875C10.2083 1.45833 10.5 2.16667 10.5 3V3.7C11.6833 4.25 12.646 5.08333 13.388 6.2C14.13 7.31667 14.5007 8.58333 14.5 10V18C14.5 18.55 14.3043 19.021 13.913 19.413C13.5217 19.805 13.0507 20.0007 12.5 20H2.5ZM2.5 18H12.5V10C12.5 8.61667 12.0123 7.43767 11.037 6.463C10.0617 5.48833 8.88267 5.00067 7.5 5C6.11667 5 4.93767 5.48767 3.963 6.463C2.98833 7.43833 2.50067 8.61733 2.5 10V18ZM6.5 3.1C6.68333 3.06667 6.85 3.04167 7 3.025C7.15 3.00833 7.31667 3 7.5 3C7.68333 3 7.85 3.00833 8 3.025C8.15 3.04167 8.31667 3.06667 8.5 3.1V3C8.5 2.71667 8.404 2.47933 8.212 2.288C8.02 2.09667 7.78267 2.00067 7.5 2C7.21667 2 6.97933 2.096 6.788 2.288C6.59667 2.48 6.50067 2.71733 6.5 3V3.1ZM5.65 12.5L7.5 11.1L9.35 12.5L8.65 10.225L10.5 8.9H8.225L7.5 6.5L6.775 8.9H4.5L6.35 10.225L5.65 12.5Z" fill="#DADADA"/>
</svg>
